<svg data-v-fde0c5aa="" xmlns="http://www.w3.org/2000/svg" viewBox="0 0 300 300" class="iconLeft"><!----><defs data-v-fde0c5aa=""><!----></defs><rect data-v-fde0c5aa="" fill="transparent" x="0" y="0" width="300px" height="300px" class="logo-background-square"></rect><defs data-v-fde0c5aa=""><!----></defs><g data-v-fde0c5aa="" id="000dfe76-d458-4b9c-bb05-4604516b9022" fill="#000000" transform="matrix(4.0543226178824705,0,0,4.0543226178824705,164.39907442959034,113.18675093894743)"><path d="M3.68 14.11L3.68 14.11Q2.69 14.11 1.93 13.73L1.93 13.73L1.93 13.73Q1.18 13.36 0.76 12.67L0.76 12.67L0.76 12.67Q0.35 11.98 0.35 11.09L0.35 11.09L0.35 10.51L0.35 10.51Q0.35 10.42 0.41 10.36L0.41 10.36L0.41 10.36Q0.46 10.30 0.56 10.30L0.56 10.30L1.48 10.30L1.48 10.30Q1.58 10.30 1.64 10.36L1.64 10.36L1.64 10.36Q1.69 10.42 1.69 10.51L1.69 10.51L1.69 11.09L1.69 11.09Q1.69 11.93 2.24 12.44L2.24 12.44L2.24 12.44Q2.79 12.95 3.68 12.95L3.68 12.95L3.68 12.95Q4.59 12.95 5.14 12.44L5.14 12.44L5.14 12.44Q5.68 11.93 5.68 11.09L5.68 11.09L5.68 4.41L5.68 4.41Q5.68 4.31 5.74 4.26L5.74 4.26L5.74 4.26Q5.80 4.20 5.89 4.20L5.89 4.20L6.80 4.20L6.80 4.20Q6.90 4.20 6.96 4.26L6.96 4.26L6.96 4.26Q7.01 4.31 7.01 4.41L7.01 4.41L7.01 11.09L7.01 11.09Q7.01 11.98 6.60 12.67L6.60 12.67L6.60 12.67Q6.19 13.36 5.43 13.73L5.43 13.73L5.43 13.73Q4.68 14.11 3.68 14.11L3.68 14.11ZM13.40 7.08L13.40 7.08Q13.40 6.99 13.45 6.93L13.45 6.93L13.45 6.93Q13.51 6.87 13.61 6.87L13.61 6.87L14.52 6.87L14.52 6.87Q14.62 6.87 14.67 6.93L14.67 6.93L14.67 6.93Q14.73 6.99 14.73 7.08L14.73 7.08L14.73 13.79L14.73 13.79Q14.73 13.89 14.67 13.94L14.67 13.94L14.67 13.94Q14.62 14 14.52 14L14.52 14L13.61 14L13.61 14Q13.51 14 13.45 13.94L13.45 13.94L13.45 13.94Q13.40 13.89 13.40 13.79L13.40 13.79L13.40 13.37L13.40 13.37Q13.40 13.33 13.37 13.32L13.37 13.32L13.37 13.32Q13.34 13.31 13.31 13.34L13.31 13.34L13.31 13.34Q12.75 14.10 11.61 14.10L11.61 14.10L11.61 14.10Q10.92 14.10 10.34 13.83L10.34 13.83L10.34 13.83Q9.76 13.57 9.41 13.05L9.41 13.05L9.41 13.05Q9.06 12.53 9.06 11.79L9.06 11.79L9.06 7.08L9.06 7.08Q9.06 6.99 9.11 6.93L9.11 6.93L9.11 6.93Q9.17 6.87 9.27 6.87L9.27 6.87L10.18 6.87L10.18 6.87Q10.28 6.87 10.33 6.93L10.33 6.93L10.33 6.93Q10.39 6.99 10.39 7.08L10.39 7.08L10.39 11.37L10.39 11.37Q10.39 12.10 10.77 12.52L10.77 12.52L10.77 12.52Q11.16 12.94 11.86 12.94L11.86 12.94L11.86 12.94Q12.56 12.94 12.98 12.51L12.98 12.51L12.98 12.51Q13.40 12.08 13.40 11.37L13.40 11.37L13.40 7.08ZM19.81 6.80L19.81 6.80Q20.23 6.80 20.57 6.96L20.57 6.96L20.57 6.96Q20.72 7.04 20.68 7.22L20.68 7.22L20.48 8.13L20.48 8.13Q20.47 8.27 20.34 8.27L20.34 8.27L20.34 8.27Q20.27 8.27 20.23 8.26L20.23 8.26L20.23 8.26Q20.02 8.19 19.75 8.19L19.75 8.19L19.75 8.19Q19.61 8.19 19.54 8.20L19.54 8.20L19.54 8.20Q18.89 8.23 18.46 8.66L18.46 8.66L18.46 8.66Q18.03 9.09 18.03 9.77L18.03 9.77L18.03 13.79L18.03 13.79Q18.03 13.89 17.98 13.94L17.98 13.94L17.98 13.94Q17.92 14 17.82 14L17.82 14L16.90 14L16.90 14Q16.80 14 16.74 13.94L16.74 13.94L16.74 13.94Q16.69 13.89 16.69 13.79L16.69 13.79L16.69 7.08L16.69 7.08Q16.69 6.99 16.74 6.93L16.74 6.93L16.74 6.93Q16.80 6.87 16.90 6.87L16.90 6.87L17.82 6.87L17.82 6.87Q17.92 6.87 17.98 6.93L17.98 6.93L17.98 6.93Q18.03 6.99 18.03 7.08L18.03 7.08L18.03 7.73L18.03 7.73Q18.03 7.78 18.05 7.79L18.05 7.79L18.05 7.79Q18.07 7.80 18.10 7.76L18.10 7.76L18.10 7.76Q18.73 6.80 19.81 6.80L19.81 6.80ZM22.67 5.81L22.67 5.81Q22.26 5.81 22.00 5.56L22.00 5.56L22.00 5.56Q21.74 5.32 21.74 4.93L21.74 4.93L21.74 4.93Q21.74 4.54 22.00 4.29L22.00 4.29L22.00 4.29Q22.26 4.05 22.67 4.05L22.67 4.05L22.67 4.05Q23.07 4.05 23.32 4.29L23.32 4.29L23.32 4.29Q23.58 4.54 23.58 4.93L23.58 4.93L23.58 4.93Q23.58 5.32 23.32 5.56L23.32 5.56L23.32 5.56Q23.07 5.81 22.67 5.81L22.67 5.81ZM22.20 14L22.20 14Q22.11 14 22.05 13.94L22.05 13.94L22.05 13.94Q21.99 13.89 21.99 13.79L21.99 13.79L21.99 7.08L21.99 7.08Q21.99 6.99 22.05 6.93L22.05 6.93L22.05 6.93Q22.11 6.87 22.20 6.87L22.20 6.87L23.13 6.87L23.13 6.87Q23.23 6.87 23.28 6.93L23.28 6.93L23.28 6.93Q23.34 6.99 23.34 7.08L23.34 7.08L23.34 13.79L23.34 13.79Q23.34 13.89 23.28 13.94L23.28 13.94L23.28 13.94Q23.23 14 23.13 14L23.13 14L22.20 14Z"></path></g><defs data-v-fde0c5aa=""><!----></defs><g data-v-fde0c5aa="" id="c20681b2-e3d2-4cfa-96cd-f37f18cdc612" stroke="none" fill="#8D2CE3" transform="matrix(1.553968015948261,0,0,1.553968015948261,19.487622485878834,73.56808100153447)"><path d="M39.6 68.87h3.22L59.4 29.5h-3.22L39.6 68.87zM66 29.5v4.64l15.13 15.03L66 64.21v4.63l19.8-19.67L66 29.5zM33 68.84v-4.63L17.87 49.17 33 34.14V29.5L13.2 49.17 33 68.84z"></path></g><!----></svg>